<svg xmlns="http://www.w3.org/2000/svg" viewBox="0 0 64 64"><title>Command Centre</title><defs><linearGradient id="idt" x1="0" y1="0" x2="1" y2="1"><stop offset="0" style="stop-color:#2c2150"/><stop offset="1" style="stop-color:#0f0a1d"/></linearGradient><linearGradient id="idb" x1="0" y1="0" x2="0" y2="1"><stop offset="0" style="stop-color:#ece6ff"/><stop offset="1" style="stop-color:#b5a6ef"/></linearGradient><radialGradient id="ids" cx=".5" cy=".4" r=".8"><stop offset="0" style="stop-color:#3a1f80"/><stop offset="1" style="stop-color:#0e0624"/></radialGradient></defs><rect width="64" height="64" rx="18" fill="url(#idt)"/><path class="lg-handle" d="M23 18V13Q23 8 28 8H36Q41 8 41 13V18" style="stroke:#d9ccff" stroke-width="5" stroke-linecap="round" fill="none"/><rect x="5" y="17" width="54" height="40" rx="7" fill="url(#idb)"/><rect x="7" y="19" width="50" height="36" rx="5" fill="none" style="stroke:#ffffff" stroke-opacity=".6"/><rect x="13" y="26" width="38" height="25" rx="4" fill="url(#ids)"/><path d="M14 18V23H21V18M43 18V23H50V18" style="stroke:#ffffff" stroke-width="3" fill="none" stroke-linejoin="round"/><g fill="none" stroke-linejoin="round" stroke-linecap="round"><path d="M22 44V31l10 9 10-9V44" style="stroke:#b69cff" stroke-width="9" stroke-opacity=".35"/><path d="M22 44V31l10 9 10-9V44" style="stroke:#ffffff" stroke-width="5.6"/></g><path d="M6 26V22Q6 18 10 18H14M50 18H54Q58 18 58 22V26M6 48V52Q6 56 10 56H14M50 56H54Q58 56 58 52V48" style="stroke:#ffffff" stroke-width="2" fill="none"/></svg>
