<svg xmlns="http://www.w3.org/2000/svg" viewBox="0 0 64 64"><title>Command Centre</title><style>:root{--lg-tileA:#f4efff;--lg-tileB:#d9ccff;--lg-tvA:#453d63;--lg-tvB:#1e1833;--lg-rim:#8a7bc4;--lg-scrA:#3b2085;--lg-scrB:#130a2c;--lg-m:#ffffff;--lg-glow:#b69cff;--lg-ant:#2b2640;--lg-orb:#7c3aed;--lg-knob:#b69cff;}@media (prefers-color-scheme: dark){:root{--lg-tileA:#2c2150;--lg-tileB:#0f0a1d;--lg-tvA:#ece6ff;--lg-tvB:#b5a6ef;--lg-rim:#ffffff;--lg-scrA:#3a1f80;--lg-scrB:#0e0624;--lg-m:#ffffff;--lg-glow:#b69cff;--lg-ant:#d9ccff;--lg-orb:#ffffff;--lg-knob:#6f50d1;}}</style><defs><linearGradient id="ict" x1="0" y1="0" x2="1" y2="1"><stop offset="0" style="stop-color:var(--lg-tileA)"/><stop offset="1" style="stop-color:var(--lg-tileB)"/></linearGradient><linearGradient id="icb" x1="0" y1="0" x2="0" y2="1"><stop offset="0" style="stop-color:var(--lg-tvA)"/><stop offset="1" style="stop-color:var(--lg-tvB)"/></linearGradient><radialGradient id="ics" cx=".5" cy=".4" r=".8"><stop offset="0" style="stop-color:var(--lg-scrA)"/><stop offset="1" style="stop-color:var(--lg-scrB)"/></radialGradient></defs><rect width="64" height="64" rx="18" fill="url(#ict)"/><path class="lg-handle" d="M23 18V13Q23 8 28 8H36Q41 8 41 13V18" style="stroke:var(--lg-ant)" stroke-width="5" stroke-linecap="round" fill="none"/><rect x="5" y="17" width="54" height="40" rx="7" fill="url(#icb)"/><rect x="7" y="19" width="50" height="36" rx="5" fill="none" style="stroke:var(--lg-rim)" stroke-opacity=".6"/><rect x="13" y="26" width="38" height="25" rx="4" fill="url(#ics)"/><path d="M14 18V23H21V18M43 18V23H50V18" style="stroke:var(--lg-rim)" stroke-width="3" fill="none" stroke-linejoin="round"/><g fill="none" stroke-linejoin="round" stroke-linecap="round"><path d="M22 44V31l10 9 10-9V44" style="stroke:var(--lg-glow)" stroke-width="9" stroke-opacity=".35"/><path d="M22 44V31l10 9 10-9V44" style="stroke:var(--lg-m)" stroke-width="5.6"/></g><path d="M6 26V22Q6 18 10 18H14M50 18H54Q58 18 58 22V26M6 48V52Q6 56 10 56H14M50 56H54Q58 56 58 52V48" style="stroke:var(--lg-rim)" stroke-width="2" fill="none"/></svg>
